<svg xmlns="http://www.w3.org/2000/svg" xmlns:xlink="http://www.w3.org/1999/xlink" width="1920" height="560" viewBox="0 0 1920 560"><defs><clipPath id="b"><rect width="1920" height="560"/></clipPath></defs><g id="a" clip-path="url(#b)"><rect width="1920" height="560" fill="#eee"/><text transform="translate(571 169)" fill="#707070" font-size="43" font-family="RobotoFlex" opacity="0.102"><tspan x="-68.168" y="0">Variable</tspan></text><text transform="translate(790 169)" fill="#707070" font-size="43" font-family="RobotoFlex" opacity="0.102"><tspan x="-46.792" y="0">Fonts</tspan></text><text transform="translate(1407 273)" fill="#707070" font-size="27" font-family="RobotoFlex" opacity="0.102"><tspan x="-39.375" y="0">Weight</tspan></text><text transform="translate(477 421)" fill="#707070" font-size="27" font-family="RobotoFlex" opacity="0.102"><tspan x="-56.8" y="0">Thickness</tspan></text><text transform="translate(1605 316)" fill="#707070" font-size="56" font-family="RobotoFlex" opacity="0.102"><tspan x="-43.381" y="0">Size</tspan></text><text transform="translate(823 481)" fill="#707070" font-size="42" font-family="RobotoFlex" opacity="0.102"><tspan x="-41.963" y="0">Slant</tspan></text><text transform="translate(226 260)" fill="#707070" font-size="35" font-family="RobotoFlex" opacity="0.102"><tspan x="-49.559" y="0">Optical</tspan></text><text transform="translate(324 257)" fill="#707070" font-size="27" font-family="RobotoFlex" opacity="0.102"><tspan x="-23.225" y="0">Size</tspan></text><text transform="translate(1543 478)" fill="#707070" font-size="27" font-family="RobotoFlex" opacity="0.102"><tspan x="-56.8" y="0">Thickness</tspan></text><text transform="translate(206 462)" fill="#707070" font-size="27" font-family="RobotoFlex" opacity="0.102"><tspan x="-57.192" y="0">Animation</tspan></text><text transform="translate(887 273)" fill="#707070" font-size="27" font-family="RobotoFlex" opacity="0.102"><tspan x="-32.855" y="0">Width</tspan></text><text transform="translate(606 321)" fill="#707070" font-size="35" font-family="RobotoFlex" opacity="0.102"><tspan x="-33.169" y="0">Italic</tspan></text><text transform="translate(1486 145)" fill="#707070" font-size="36" font-family="RobotoFlex" opacity="0.102"><tspan x="-35.734" y="0">Sans</tspan></text><text transform="translate(1763 213)" fill="#707070" font-size="33" font-family="RobotoFlex" opacity="0.102"><tspan x="-27.523" y="0">Text</tspan></text><text transform="translate(1099 324)" fill="#707070" font-size="47" font-family="RobotoFlex" opacity="0.102"><tspan x="-44.597" y="0">Style</tspan></text><text transform="translate(188 121)" fill="#707070" font-size="27" font-family="RobotoFlex" opacity="0.102"><tspan x="-56.8" y="0">Thickness</tspan></text><text transform="translate(484 59)" fill="#707070" font-size="25" font-family="RobotoFlex" opacity="0.102"><tspan x="-37.295" y="0">Optical</tspan></text><text transform="translate(570 61)" fill="#707070" font-size="27" font-family="RobotoFlex" opacity="0.102"><tspan x="-23.225" y="0">Size</tspan></text><text transform="translate(92 356)" fill="#707070" font-size="36" font-family="RobotoFlex" opacity="0.102"><tspan x="-34.945" y="0">Style</tspan></text><text transform="translate(1735 77)" fill="#707070" font-size="27" font-family="RobotoFlex" opacity="0.102"><tspan x="-57.192" y="0">Animation</tspan></text><text transform="translate(1768 419)" fill="#707070" font-size="35" font-family="RobotoFlex" opacity="0.102"><tspan x="-33.169" y="0">Italic</tspan></text><text transform="translate(1834 319)" fill="#707070" font-size="27" font-family="RobotoFlex" opacity="0.102"><tspan x="-32.855" y="0">Width</tspan></text><text transform="translate(1136 108)" fill="#707070" font-size="35" font-family="RobotoFlex" opacity="0.102"><tspan x="-62.16" y="0">Variation</tspan></text><text transform="translate(1218 465)" fill="#707070" font-size="36" font-family="RobotoFlex" opacity="0.102"><tspan x="-36.441" y="0">Slant</tspan></text></g></svg>